<?xml version="1.0" standalone="no"?>
<!DOCTYPE svg PUBLIC "-//W3C//DTD SVG 20010904//EN"
 "http://www.w3.org/TR/2001/REC-SVG-20010904/DTD/svg10.dtd">
<svg version="1.0" xmlns="http://www.w3.org/2000/svg"
 width="320.000000pt" height="360.000000pt" viewBox="0 0 320.000000 360.000000"
 preserveAspectRatio="xMidYMid meet">

<g transform="translate(0.000000,360.000000) scale(0.100000,-0.100000)"
fill="#000000" stroke="none">
<path d="M261 2508 c1 -518 2 -566 15 -497 96 530 522 956 1054 1053 68 12 18
14 -497 15 l-573 1 1 -572z"/>
<path d="M1800 3064 c474 -86 872 -438 1015 -896 14 -46 32 -117 39 -158 12
-67 14 -17 15 498 l1 572 -572 -1 c-516 -1 -566 -3 -498 -15z"/>
<path d="M261 1043 l-1 -573 573 1 c515 1 565 3 497 15 -474 86 -869 435
-1015 894 -14 46 -32 118 -39 159 -13 69 -14 21 -15 -496z"/>
<path d="M2855 1553 c-4 -32 -18 -96 -32 -143 -136 -472 -538 -836 -1023 -924
-68 -12 -18 -14 498 -15 l572 -1 0 570 c0 314 -2 570 -4 570 -2 0 -7 -26 -11
-57z"/>
</g>
</svg>
